<?xml version="1.0" encoding="utf-8"?>
<!-- Generator: Adobe Illustrator 24.1.1, SVG Export Plug-In . SVG Version: 6.00 Build 0)  -->
<svg version="1.1" id="Layer_1" xmlns="http://www.w3.org/2000/svg" xmlns:xlink="http://www.w3.org/1999/xlink" x="0px" y="0px"
	 viewBox="0 0 25 25" style="enable-background:new 0 0 25 25;" xml:space="preserve">
<style type="text/css">
	.st0{fill:#B3B3B3;}
</style>
<g>
	<g>
		<g>
			<rect x="0" class="st0" width="25" height="1"/>
		</g>
	</g>
	<g>
		<g>
			<rect x="19" y="4" class="st0" width="6" height="1"/>
		</g>
	</g>
	<g>
		<g>
			<rect x="19" y="8" class="st0" width="6" height="1"/>
		</g>
	</g>
	<g>
		<g>
			<rect x="19" y="12" class="st0" width="6" height="1"/>
		</g>
	</g>
	<g>
		<g>
			<rect x="19" y="16" class="st0" width="6" height="1"/>
		</g>
	</g>
	<g>
		<g>
			<rect x="19" y="20" class="st0" width="6" height="1"/>
		</g>
	</g>
	<g>
		<rect y="24" class="st0" width="25" height="1"/>
	</g>
	<g>
		<path d="M0.1,3.5v18.1h16.7V3.5H0.1z M14.7,14.4l-4-3.7L6.3,16l-1.4-2.4L2.1,16V5.6h12.5V14.4z"/>
		<path d="M7.8,9.2c0,1.2-1,2.2-2.2,2.2c-1.2,0-2.2-1-2.2-2.2C3.5,8,4.5,7,5.7,7C6.9,7,7.8,8,7.8,9.2z"/>
	</g>
</g>
</svg>
