<svg xmlns="http://www.w3.org/2000/svg" viewBox="0 0 593.07 702.45"><defs><style>.cls-1{fill:none;}.cls-2{fill:#db1a5f;}.cls-3{fill:#fff;stroke:#262626;stroke-miterlimit:10;}</style></defs><g id="Layer_2" data-name="Layer 2"><g id="Layer_1-2" data-name="Layer 1"><path class="cls-1" d="M164.42,428.81a7,7,0,0,0,3.85,2.28C166.52,429.61,166,428.89,164.42,428.81Z"/><path class="cls-1" d="M178.78,441.18a65.6,65.6,0,0,0-7.16-5.69c-2.59-2-5.21-3.56-7.05-3.87-1.16-1.73-3.2-3.92-4.6-5.83L156.35,423c-1.26-1-2.56-2.21-3.93-3.4s-2.8-2.42-4.21-3.72l-4.18-4c-5.63-5.4-10.86-11.08-14.82-14.72-1.07-1.06-2.71-5.14-3.71-3.92a10.9,10.9,0,0,0,1,2.79,32.05,32.05,0,0,0,2.08,3.3,62.38,62.38,0,0,0,6.47,7.75l4,4.15c1.41,1.36,2.9,2.68,4.34,4,2.85,2.75,5.85,5.25,8.48,7.67l5.38,5.18a55.54,55.54,0,0,0,5.3,4.75,30.81,30.81,0,0,1,7.11,3.82c2.39,1.57,5,3.24,7.81,4.94C177.73,441.26,178.68,441.82,178.78,441.18Z"/><path class="cls-1" d="M93.62,367.83c.93.18,2.48,4.12,3.16,2.59C95.55,367.41,92.9,365,93.62,367.83Z"/><path class="cls-1" d="M193.42,458.42c-1,1.11-3.29-.59-4.33-1.81-.1.56-.92,1.05.17,1.74,1-.13,2.46.4,4.53,1.47C193.85,459.36,194.38,459,193.42,458.42Z"/><path class="cls-1" d="M185.49,451.45c2.45.23,1.39,1.59,4.77,2.87C192.86,452.69,183.87,450.1,185.49,451.45Z"/><path class="cls-1" d="M108.46,374.29c-1.39-2.51-2.51-4.65-3.75-6.47s-2.45-3.43-3.43-5.17C102,365.86,108.09,374.79,108.46,374.29Z"/><path class="cls-1" d="M114.28,359.57c-.55-2.1-2.35-1.59-1.39-.21C113.33,359.17,113.89,360.07,114.28,359.57Z"/><path class="cls-1" d="M97.39,357.45c1.26,2.82,3.15,4.46,3,2.59Q98.73,357,97.39,357.45Z"/><path class="cls-1" d="M122.26,404.29c-.84-2.38-2.77-2.49-4.49-4.83-1.41-2.11-3-4.36-4.64-6.59s-3.11-4.51-4.63-6.44c-2.63-3.36-5.83-7.88-8.24-9.27a42,42,0,0,0,7.19,10.06c2.7,2.94,4.87,5.61,5.07,7.94a27.4,27.4,0,0,1,7.38,8.65C120.47,403.35,121.94,405.46,122.26,404.29Z"/><path class="cls-1" d="M103.63,358.34c-1.16-1.82-2.6-5.95-3.56-6.23C100.13,353.53,102.62,358.79,103.63,358.34Z"/><path class="cls-1" d="M120.47,383.59a24.49,24.49,0,0,0-3.39-5.15c-1.39-1.86-2.86-3.71-3.91-5,.61,1.11,1.88,3.74,3.33,6S119.57,383.65,120.47,383.59Z"/><rect class="cls-1" x="154.56" y="429.79" width="0.74" height="1.84" transform="translate(-279.49 286.5) rotate(-51.85)"/><path class="cls-1" d="M174.72,444.26c-1.71.17,2.92,3.14,2.33,1.49Z"/><path class="cls-1" d="M292.2,468.45a71.8,71.8,0,0,0,7.59.23c2.27-.12,4.52-.34,7.52-.69,3.32-.38,6.77-1,10.27-1.42s6.95-1.18,10.31-1.7c6.65-1.32,12.7-2.72,16.79-4.3-.09-.47.95-.8.54-1.3-18.22,5.61-34.88,7.64-58.34,8.53C287,468.9,290.22,468.33,292.2,468.45Z"/><path class="cls-1" d="M278,468.31c.7-.07,1.05-.29.92-.72a71.08,71.08,0,0,1-7.74-.54c-1.45-.15-3-.28-4.52-.47l-4.74-.73-4.87-.67-4.85-.81c-1.6-.25-3.19-.46-4.74-.63s-3-.43-4.49-.55c1.19.4,2.43.82,3.73,1.21l4.08,1a80.24,80.24,0,0,0,8.81,1.78,92.39,92.39,0,0,0,9.28,1C272,468.35,275,468.45,278,468.31Z"/><path class="cls-1" d="M285.11,467.75a5.05,5.05,0,0,0-4.45.62C281.48,468.77,285.23,468.82,285.11,467.75Z"/><path class="cls-1" d="M224.31,457.71c.5,1.05,8.5,4.12,9.3,2.78C231.81,460.08,226.6,457.94,224.31,457.71Z"/><path class="cls-1" d="M107,177.27c2-4.05,3.49-5.5,2.51-7.45C107.46,173.37,106.34,175.07,107,177.27Z"/><path class="cls-1" d="M101.25,349.26l-.73-1.62c-1.39-.89.26,3.21.76,2.58C101.08,349.72,100.9,349.24,101.25,349.26Z"/><path class="cls-1" d="M110.91,168.62a20.09,20.09,0,0,0,2.84-4.35c-.86-1.31-2.15.89-3.34,2.11C111,166.73,109.74,168.71,110.91,168.62Z"/><path class="cls-1" d="M88.25,258.14a135.47,135.47,0,0,1,2.51-26.44c1.62-7.92,3.43-15.07,5.29-21.83.75-2.59,1.43-5.28,2.31-7.66s1.6-4.56,2-6.25c.38-1.53.38-3,.82-4.28.36-1,1-1.41,1.6-3.07.41-1.09.07-2,.58-3.48.44-1.13,3.79-5.14,2.15-5.66a228.28,228.28,0,0,0-13.25,38.69,196.56,196.56,0,0,0-5.6,42.56C87.62,260.87,87.89,259.4,88.25,258.14Z"/><path class="cls-1" d="M87.54,281.55a46.66,46.66,0,0,1-.35-9.72c.16-3.15.08-5.78-1.22-6.76a44.83,44.83,0,0,0,0,9.78C86.38,278.2,87,281,87.54,281.55Z"/><path class="cls-1" d="M92.7,328.8c-9.63-27.7-11.86-55.07-9.68-81a230,230,0,0,1,19.71-74.54c.88-1.87,1.78-3.77,2.69-5.72.46-1,.92-2,1.38-3s1-1.94,1.56-2.92l3.22-6c1.21-2,2.45-3.94,3.69-5.94,1.11-1.83,2.42-3.62,3.74-5.42l3.93-5.46a91.41,91.41,0,0,0,7-10.48,158.48,158.48,0,0,0-21.49,29.75A207.92,207.92,0,0,0,93.7,190.72a228.46,228.46,0,0,0-13.15,66.34c-1.36,19.92,1.82,46.38,8.57,65.4.19.58.37,1.33.56,2.15s.47,1.66.75,2.49c.55,1.65,1.22,3.14,2.15,3.62.35-.12.64.55,1,.61C93.28,330.08,93.49,329.77,92.7,328.8Z"/><path class="cls-1" d="M471.94,352.83c-1.06,2.52-4.73,7.85-3,7.4C470.54,357.11,472.71,353.38,471.94,352.83Z"/><path class="cls-1" d="M445.51,393.9c.56.18.72,1.26,2,0,0-2.77,7.21-8.19,6.49-10.15a34.4,34.4,0,0,1-4.27,5.37C448.39,390.46,447.17,391.84,445.51,393.9Z"/><path class="cls-1" d="M460.21,376.74c-.23-1.06,2.62-3.06.12-1.54a23.89,23.89,0,0,0,2.58-4.66c1.27-1.58,1.55-1.91,1.56-1.55a12.63,12.63,0,0,1-.64,2.15c2.47-3.9,2.58-5.8,3.8-8.6-3.31,3.47-4.3,6.35-6.89,11.34-1-.51-2.55,3.56-5.82,7.22C456.19,381,458.71,377.85,460.21,376.74Z"/><path class="cls-1" d="M442.56,355.94c-1.43,2-4.22,4.94-3.49,6.09C440,360.18,443.22,356.53,442.56,355.94Z"/><path class="cls-1" d="M430.81,409.1c-4,3.23-2.4,5.28.53,2.53C431.54,410.41,433.38,407.71,430.81,409.1Z"/><path class="cls-1" d="M353.68,480.76c.48-1,2.29-2.59-.67-2.48l-5.59,1.56C346,481.85,347.78,482,353.68,480.76Z"/><path class="cls-1" d="M472.05,279.65c.4,3.07.55.91,1.26,2.57l.39-4.81C473,277.52,472.41,278.08,472.05,279.65Z"/><path class="cls-1" d="M408.59,427.77l.63.91c3.27-2.35,4.45-3.31,5.68-4a43.77,43.77,0,0,0,5.27-3.53c.58-1.07.71-1.92-.15-2.3a39,39,0,0,1-5.31,4.79C413.33,424.59,412,425.63,408.59,427.77Z"/><path class="cls-1" d="M200.88,525.45c-3.68-1.28-8.09-2.78-12.65-4.79l-7-3c-2.38-1-4.73-2.21-7.08-3.3s-4.69-2.15-6.91-3.27l-6.4-3.19c-4.12-1.93-7.68-3.76-10.51-4.92,9.36,5.39,18.83,10.25,27.52,14.25S194.51,524.11,200.88,525.45Z"/><path class="cls-1" d="M327.13,481.3c-4.94.75-14.66,1.49-17,2.71C315.72,483.58,321.8,483.87,327.13,481.3Z"/><path class="cls-1" d="M357.2,493.9c-3.21.81-7.45,2.08-11.26,3s-7.08,1.88-8.23,2.66c3.19-.88,7.74-1.67,11.65-2.64S356.52,494.82,357.2,493.9Z"/><path class="cls-1" d="M119.1,72.56c-2.12.3,4.28-5.63,8.56-7.7,2-2.4-1.21-.42-2.41-.44-3.41,3.5-6.46,5-8.34,8.09C120.87,69.18,113,78.22,119.1,72.56Z"/><path class="cls-1" d="M436.53,364.5a175.64,175.64,0,0,1-18.13,21.91C411,394.17,402.87,401.47,397,407.1a176.09,176.09,0,0,0,23-20.87A132.76,132.76,0,0,0,436.53,364.5Z"/><path class="cls-1" d="M123.3,181c1.46-2.15,2.44-1.68,4-4.54,2.46-6.18,2.57-9.06,7-13.71-.55-.44.07-2,1.12-3.66s2.44-3.6,3.13-5c.54.68,1.43-.13,3-2.18A43.89,43.89,0,0,1,146,145c1.9-2.29,3.9-4.68,5.81-6.84a48.49,48.49,0,0,0,4.84-5.86c1.19-1.71,1.84-3.14,1.46-4.25-8.4,7.47-14.35,15.92-19.43,23.95s-9.07,15.89-14.26,22.83C125.93,176.13,121.54,180.23,123.3,181Z"/><path class="cls-1" d="M133.82,492.32c3.68,2.51,5.52,3.69,7.17,4.78s3.11,2.14,6.2,4.11c1-.21-2.16-2.16-5.5-4.38A63.68,63.68,0,0,0,133.82,492.32Z"/><path class="cls-1" d="M98.89,94.1c6.49-6.87,11-11.95,12.71-15.15-1.18,1.24-2.51,2.47-3.9,3.71l-4.07,3.94c-2.67,2.64-5.14,5.34-6.35,8.22C98.18,93.92,98.75,93.6,98.89,94.1Z"/><path class="cls-1" d="M353.43,428.4c.08-1.29-2.66-.16-5.71,1l.35,1A10.72,10.72,0,0,0,353.43,428.4Z"/><path class="cls-1" d="M395.66,407.22a107.35,107.35,0,0,1-17.18,12.07c-1.41.83-2.8,1.64-4.19,2.47L370,424.09c-1.44.78-2.83,1.69-4.31,2.5s-3,1.66-4.5,2.59l4.77-2.13c1.64-.74,3.24-1.65,4.9-2.48,3.34-1.61,6.57-3.62,9.72-5.51s6-4.09,8.62-6C391.71,411,393.93,409,395.66,407.22Z"/><path class="cls-1" d="M340.61,437.85c1.47-.37,3.24-1,5.13-1.72s3.91-1.36,5.74-2.18c3.65-1.67,6.8-3.2,7.45-4.15a160.06,160.06,0,0,1-31.72,10.4,256.29,256.29,0,0,1-30.68,4.58C311.14,443.93,327.1,442,340.61,437.85Z"/><path class="cls-1" d="M199,24.81c-7.9,1.88-21.73,6.12-27.2,11.55C179.81,32.05,192.93,29.13,199,24.81Z"/><path class="cls-1" d="M472.89,264.11c.4,1,.4,3.15.41,5.34,0,1.09,0,2.19.05,3.16a9.86,9.86,0,0,0,.18,2.37,19,19,0,0,0,.46-3c.09-1.39.15-3,.15-4.51C474.13,264.55,473.84,262.3,472.89,264.11Z"/><path class="cls-1" d="M444.63,118.28c5.06,5.64,13.41,17.5,18.32,22.39-3.74-5.14-7.12-10.83-10.15-15.28S447,117.87,444.63,118.28Z"/><path class="cls-1" d="M505.9,326.32c-1.21,4.64-2.92,6.43-1.49,7.24C505.71,331.78,507,326.34,505.9,326.32Z"/><path class="cls-1" d="M406.27,452.34c-.72.77-2.15,3.49,2,.49,2.19-2-1.05-2.13,5.12-5.48,3-.41-.95,2.49.37,3.3,4.42-3.17,1.24-3.54,4.54-6.31,1.32.49,3.31-.52,4.71-1.36s2.24-1.46,1.46.06c.93-1.35,2-1.65,3.49-2.3a16.29,16.29,0,0,0,6.11-4.39c-.88-.64-1.39-1.46,2.16-4.28,0,.68-1.13,1.89-.17,2.08,4.14-3.41,8-7.18,11.86-10.85-.21-.58-1.28-.6,0-2.11,1.56-1.29,1.13.87,3.05-1.05,1.16-1.46,2.4-2.95,3.68-4.47s2.51-3.2,3.85-4.85,2.71-3.33,4-5.11l4.07-5.51c1.42-1.85,2.77-3.83,4.1-5.86s2.74-4.06,4.07-6.19c2.53-4.33,5.26-8.73,7.52-13.53A23.51,23.51,0,0,1,479.5,378c.32-2.93,5-10.07,4.46-12.39-.46,1-.93,2-1.41,3s-1.06,2-1.61,3l-3.4,6.07c-1.28,2-2.57,4-3.89,6.06l-2,3.08c-.72,1-1.44,2-2.17,3-5.67,8.2-12.35,16.07-18.9,23.87-3,2.47-5.91,5.56-9.25,8.58l-5,4.78-5.26,4.72c-1.73,1.62-3.55,3.12-5.38,4.56s-3.61,2.9-5.39,4.24a88,88,0,0,1-10.52,6.55,75.36,75.36,0,0,1-10.66,7.26c-2,1.15-4.08,2.34-6.19,3.45l-6.36,3.11c-2.07,1.06-4.13,2-6.09,2.86s-3.8,1.78-5.46,2.65c-3.36,1.66-6.09,3.14-7.61,4.69,5.32-2.39,13-5.48,20.24-8.94,3.64-1.74,7.27-3.41,10.42-5.18S404.15,453.75,406.27,452.34Z"/><path class="cls-1" d="M421.32,101.06l-7.43-5.89C413.31,96.34,420.52,102.33,421.32,101.06Z"/><path class="cls-1" d="M503.9,322.64c-.57,2-1.26,4.34-1.81,6.26s-.92,3.39-.45,3.67c.2-.81.58-1.86,1-3s.75-2.35,1.09-3.44C504.36,324,504.72,322.28,503.9,322.64Z"/><path class="cls-1" d="M517.2,237.51a74.76,74.76,0,0,0,0,13.44c.08,2.62.23,5.31.47,7.84s.56,4.93.8,7c-.95-.49-1.26,2-1.27,5.88.5,13-1.25,28.29-4.32,42.24s-7.06,26.62-9.46,35.24c7.31-15.2,12.91-34.95,14.86-55A239.84,239.84,0,0,0,517.2,237.51Z"/><path class="cls-1" d="M357.6,508.29c-1.89.38-4.13,1-6.37,1.6a53.64,53.64,0,0,0-6.35,2c2.84-.8,5.68-1.09,8-1.58S356.88,509.28,357.6,508.29Z"/><path class="cls-1" d="M524,296.78c-.5,3.78-.89,6.33-.54,7.74a20.58,20.58,0,0,0,1.24-5C524.89,297.74,524.73,296.34,524,296.78Z"/><path class="cls-1" d="M19,227.62c.6-.78,1.21-3.79,2.13-7.77s1.82-9,2.92-13.81,2-9.49,2.75-12.82,1-5.38.48-5c-.88,3-1.81,5.76-2.48,8.58s-1.33,5.63-2.05,8.64-1.24,6.23-1.9,9.86q-.48,2.72-1,5.77C19.52,223.11,19.28,225.29,19,227.62Z"/><path class="cls-1" d="M526,252.25c-.83,3-.76,7.46-.35,11.45s1.09,7.52,2.14,8.65a56.41,56.41,0,0,1-.15-5.65c0-2.16.1-4.48,0-6.62C527.44,255.8,527.1,252.26,526,252.25Z"/><path class="cls-1" d="M464.68,144.46c2.3,3.47,5.43,9.19,6.48,8.95C467.67,148.49,467,145.94,464.68,144.46Z"/><path class="cls-1" d="M459.77,211.37c1.65,4.14,1.57,7.29,3.34,9.91a26.25,26.25,0,0,1-.7-3c-.23-1.15-.56-2.35-.83-3.45C461,212.68,460.43,211,459.77,211.37Z"/><path class="cls-1" d="M482.41,259.38c-.1-2.75,0-5.61-.28-8.06A22.51,22.51,0,0,0,481,245.6c.2,2.55.4,5.57.53,8.16S481.84,258.52,482.41,259.38Z"/><path class="cls-1" d="M414,146.85c-.78,2.51-4.69-4.28-5.14-2.77,1.39,1.41,2.73,2.87,4,4.31s2.42,3,3.63,4.42c2.46,2.78,4.54,5.57,7.18,7.49a41.81,41.81,0,0,0-5.35-7A18.88,18.88,0,0,1,414,146.85Z"/><path class="cls-1" d="M472.9,261.72l1.47,0c-.15-3-.14-6.31-.4-9s-.84-4.78-1.67-5.37a26.39,26.39,0,0,0,.34,6.08A80.85,80.85,0,0,1,472.9,261.72Z"/><path class="cls-1" d="M467.59,253.47a103.29,103.29,0,0,1,.26,10.72c-.18,4.27,0,8.48.55,10.34.19-1.78.24-4.07.32-6.48s.26-4.93.09-7.2C468.62,256.32,468.34,252.84,467.59,253.47Z"/><path class="cls-1" d="M472.2,156c7.22,13.06,12.45,26.56,17.76,38.71L488.6,190c-.53-1.62-1.17-3.27-1.8-5l-2-5.19c-.78-1.71-1.56-3.45-2.35-5.18s-1.55-3.47-2.43-5.13-1.78-3.28-2.64-4.87C475.74,161.43,473.86,158.56,472.2,156Z"/><path class="cls-1" d="M392,126.59c-1.16-.12-3.41-1.33-2,.75C393.31,130.28,393.67,128.35,392,126.59Z"/><path class="cls-1" d="M499.43,237.59a17.84,17.84,0,0,0,.12,4c.14,1.48.44,2.74.92,2.78a14.21,14.21,0,0,0,0-4.06C500.28,238.87,499.9,237.62,499.43,237.59Z"/><path class="cls-1" d="M357.11,107.73c2.57,1.3,3.5,1,3.65,0C358,106.57,355.58,106.33,357.11,107.73Z"/><path class="cls-1" d="M334.89,535.93a130.41,130.41,0,0,1-15.7,2.31c-2.72.33-5.46.44-8.17.57l-8,.37c-5.21.1-10.13.08-14.42.29a62.5,62.5,0,0,0-10.68.8l9.09.16c2.9,0,5.67-.1,8.33-.15s5.21-.08,7.67-.21l7.11-.49c2.29-.18,4.5-.32,6.65-.55l6.28-.85A104.64,104.64,0,0,0,334.89,535.93Z"/><path class="cls-1" d="M229.23,63.24c-1.1.24-2,.27-3.2.46a20,20,0,0,0-4.6,1.58c2.17.15,5.55-.61,8.8-.89s6.25-.55,7.65.68A83.17,83.17,0,0,1,229.67,70c3.46-.72,3.5.63,7.84-.66a147.16,147.16,0,0,0,21.58-11.15c5.43-3.59,8.39-7.36,6.35-10.51C247.53,51.19,241.12,57.19,229.23,63.24Z"/><path class="cls-1" d="M451.17,480.92c-1.53-.67-9.05,4.81-10.23,6.8C445.75,484,446.76,484.31,451.17,480.92Z"/><path class="cls-1" d="M421.49,499.68c-3.8,2.14-5.49,2.94-6.93,3.61l-5.64,2.6C409.08,507.42,420.32,501.53,421.49,499.68Z"/><path class="cls-1" d="M366.72,523.29c0-1.06-8.88,1-8.54,2A47.47,47.47,0,0,0,366.72,523.29Z"/><path class="cls-1" d="M183.07,102.29c2.34-1.07,4.59-2.34,6.93-3.46s4.63-2.31,6.86-3.54c4.59-2.22,8.91-4.69,13-6.81,4-2.32,7.74-4.22,10.75-6.3a34.38,34.38,0,0,0,7-5.41c-8.91,1.8-18.4,6.13-26.44,11-2,1.26-3.9,2.51-5.72,3.73s-3.44,2.63-5,3.87A62.37,62.37,0,0,0,183.07,102.29Z"/><path class="cls-1" d="M138.37,161.3c-7.74,12.9-14.63,27.19-19,41.5s-6.58,28.45-6.37,40.35a185.42,185.42,0,0,1,17.79-63.22,207.59,207.59,0,0,1,36.52-52.32c.64-.65.84-1.12.41-1.32-.81.64-1.64,1.26-2.43,1.93l-2.32,2.11c-1.52,1.43-3.11,2.81-4.55,4.33a119.59,119.59,0,0,0-8.1,9.29A167,167,0,0,0,138.37,161.3Z"/><path class="cls-1" d="M178,83.73,173.05,87l-2.61,1.67-2.59,1.83-5.22,3.7c-1.7,1.28-3.34,2.63-4.95,3.91a84.21,84.21,0,0,0-8.47,7.73,30.54,30.54,0,0,0-5.22,6.76,23.78,23.78,0,0,0,3.65-3l3.28-3.2c2.15-2.06,4.13-4.06,6.66-4.69a20.91,20.91,0,0,1,4.5-4.6c2-1.68,4.51-3.18,6.81-4.81s4.58-3.09,6.27-4.49S178,85,178,83.73Z"/><path class="cls-1" d="M112.77,253.42c.44-4,.31-6.8-.45-8C111.51,248.84,111.25,253.28,112.77,253.42Z"/><path class="cls-1" d="M463.1,470.51a59.28,59.28,0,0,0-9.36,8C457.2,476.07,460.69,473.55,463.1,470.51Z"/><path class="cls-1" d="M557.89,222.13c.8,4.74,1.34,13.9,2.17,15.73C560.41,235.75,559.14,221.15,557.89,222.13Z"/><path class="cls-1" d="M502.31,92c2.26,3.34,5.34,7.28,6.86,10.28-.34-2.91,4.62,6.41,4.3,3.53a52.75,52.75,0,0,0-5.56-8.29C505.59,94.75,503.32,92.44,502.31,92Z"/><path class="cls-1" d="M466.05,477.18c-.76.64-1.37,1.55.22.29,0-.58,1.17-1.75,2.28-2.92,9.48-7.22,26.12-24.78,13.07-12.32-4,3.82-13.69,12.39-20,18C463.32,479,465.59,477.05,466.05,477.18Z"/><path class="cls-1" d="M566,248.32c-.05,3.66-.09,7.09-.13,10.35,0,1.63,0,3.21-.12,4.76s-.19,3.05-.28,4.53c-.19,3-.37,5.8-.54,8.59s-.53,5.51-.79,8.24c-1,10.92-2.35,21.85-4.59,36.55.81-2.5,1.39-5.17,2-7.95s1.29-5.65,1.86-8.62,1-6,1.4-9.16c.22-1.55.46-3.12.64-4.71s.27-3.18.42-4.78A222.09,222.09,0,0,0,566,248.32Z"/><path class="cls-1" d="M130.9,156c-2.79,4.18-7.32,9.77-6.29,12,1.24-2.37,3.06-5,4.41-7.17S131.24,156.67,130.9,156Z"/><path class="cls-1" d="M561.27,292.6c-1-1.71-.57-8.82,0-16.38.12-3.79.25-7.69.25-11.08a32.31,32.31,0,0,0-.79-7.94c.11,1.78.22,3.87.25,6.15s-.13,4.77-.2,7.36c-.08,5.18-.63,10.78-1.11,16-.12,1.32-.24,2.61-.35,3.86l-.47,3.65c-.28,2.36-.54,4.54-.77,6.44-.36,3.82-.7,6.53-.45,7.45a24.05,24.05,0,0,1,1.5-7.69A40.44,40.44,0,0,0,561.27,292.6Z"/><path class="cls-1" d="M245.71,528.61c-3.85-.92-14.11-3.5-15.45-2.61.66.27,1.91.68,3.43,1.11s3.33.74,5.06,1.06C242.23,528.8,245.44,529.15,245.71,528.61Z"/><path class="cls-1" d="M247.78,536.74c-2.93-.27-8.89-1.55-13.8-2.45s-8.69-1.94-7.38-1.22l6.09,1.37,7.66,1.46C245.26,536.87,249.14,537.3,247.78,536.74Z"/><path class="cls-1" d="M106.24,212.87c-.35,1.07-.78,2.24-1.08,3.45s-.57,2.46-.85,3.62c-.51,2.35-1,4.41-1.09,5.55s0,1.32.36-.16,1.29-4.55,2.68-9.93C105.8,215.25,106.54,213.27,106.24,212.87Z"/><path class="cls-1" d="M48,235.46c-.43-.56-.41-2.3-1.26-1.76a33.5,33.5,0,0,0-.24,9.44,15.46,15.46,0,0,1,.8-3.08A22.36,22.36,0,0,0,48,235.46Z"/><path class="cls-1" d="M14.73,260.68c-.06,4.42.18,9.7.26,15.28.1,2.78.34,5.64.52,8.5s.31,5.73.7,8.51a172.48,172.48,0,0,0,4.32,25.47c-3.62-17.74-5-38.16-4.29-59.45-.48-.05-.25-3.09-.63-3.55C15.49,258.2,15.49,261.53,14.73,260.68Z"/><path class="cls-1" d="M122.86,183.45l-1.64-.83-1.49,3.25a219.53,219.53,0,0,0-11.89,38,171.94,171.94,0,0,0-3.79,40.79c.16,2.89.17,5.77.34,8.61s.43,5.65.64,8.43.71,5.49,1.06,8.17,1,5.28,1.45,7.84a48.16,48.16,0,0,0,1.19,5c.47,1.72,1,3.48,1.48,5.2a54.66,54.66,0,0,0,3.84,8.89,182.79,182.79,0,0,1-7.36-33.93,185.21,185.21,0,0,1-.67-37.16A178.34,178.34,0,0,1,112.39,211,185.21,185.21,0,0,1,122.86,183.45Z"/><path class="cls-1" d="M54.15,198.46a13,13,0,0,1-2.32,4.22,106.06,106.06,0,0,0-2.53,13.53c-.37,3.88-.39,6.62.1,6.84-.37-.06-.95,2.61-.56,3.07.94-2.18,1.91-7.68,2.91-13.33S53.75,201.33,54.15,198.46Z"/><path class="cls-1" d="M58.86,183.52,57.48,183a52.26,52.26,0,0,0-2,7.55,23.58,23.58,0,0,0-.13,5C56.92,189,57.3,189.49,58.86,183.52Z"/><path class="cls-1" d="M165.91,398.08c3,2.54,5.84,5.26,9,7.61-.35-.86-2-2.05-3.72-3.56s-3.73-3.06-5-4.32c-2.33-2.58-6.22-6.39-9.72-10.28-.89-.95-1.79-1.88-2.67-2.76s-1.64-1.82-2.42-2.62a35.74,35.74,0,0,0-4-3.72C153.53,386.32,160.84,394.21,165.91,398.08Z"/><path class="cls-1" d="M181,411.29c.55-.25,1.95.64,2.57.49-1-.61-2.61-1.92-3.91-2.86s-2.24-1.61-2.22-.74C179.2,409.54,179.25,410.08,181,411.29Z"/><path class="cls-1" d="M213.17,428.46c-1.68-.79-4-1.78-6.48-3.16s-5.31-2.68-7.92-4.27c-5.36-2.9-10.19-6.07-12.55-6.88C195.32,420.44,205.21,425.74,213.17,428.46Z"/><path class="cls-1" d="M127,348.23c1.08,2.16,2.43,4.16,3.58,6.06.59.94,1.17,1.83,1.73,2.65s1.19,1.51,1.75,2.14c-1.12-1.87-2.29-4.45-3.54-6.58S128,348.63,127,348.23Z"/><path class="cls-1" d="M122.08,336.3c-1.38-1.88-2.45-4.9-3.61-8.06s-2.21-6.55-3.69-9.22C115.42,322.77,120.68,337.22,122.08,336.3Z"/><path class="cls-1" d="M102.6,418.9c3.38,3.6,3,4.66,6.92,8.48C110.66,426.68,105,420.06,102.6,418.9Z"/><path class="cls-1" d="M342.74,528.56c-5.48,1.05-15,1.77-17.26,3.22,2.64-.39,6.38-.9,9.75-1.47S341.61,529.2,342.74,528.56Z"/><path class="cls-2" d="M72.65,410.34c-2.92-4.32-5.2-7.76-7-9.53C67.59,404.74,71.19,412.47,72.65,410.34Z"/><path class="cls-2" d="M377.47,490.44c3.3-.42,7.08-2.57,7.06-3.64C382.19,487.28,376,489.61,377.47,490.44Z"/><path class="cls-2" d="M419.12,468.13a28.62,28.62,0,0,0,5.36-3c1.79-1.35,3-2.64,2.12-2.83C423.49,463.64,419.41,466.88,419.12,468.13Z"/><path class="cls-2" d="M511,291.59c1,.84,1.64-2.91,2-7.08C511.28,284.05,511.94,289.54,511,291.59Z"/><path class="cls-2" d="M553.22,270.78c.45-1.13.63-4.35.6-7.39s-.51-5.89-.86-6.29c-.19.84-.24,4.53-.4,7.86S552.51,271.29,553.22,270.78Z"/><path class="cls-2" d="M504.44,125.47a278.45,278.45,0,0,1,30.7,70.47,286.28,286.28,0,0,1,7.6,35.51c1,5.81,1.46,11.57,2.16,17.22.28,2.83.41,5.63.63,8.41s.47,5.53.49,8.25c.94-30.37-5.28-61-15.39-88.11-.75-2.25-1.64-4.53-2.55-6.86l-2.72-7.13c-1-2.38-2-4.75-3.06-7.14s-2-4.78-3.23-7.05A139.65,139.65,0,0,0,512,136c-1.24-2-2.48-3.9-3.7-5.69S505.69,127,504.44,125.47Z"/><path class="cls-2" d="M548.78,214.57a58.7,58.7,0,0,0,.66,8.14c.31,3.5.79,7.6,1.34,11.73.88,8.28,1.86,16.77,2.51,20.95C552.34,238.52,552.65,228.39,548.78,214.57Z"/><path class="cls-2" d="M502.69,183.07c-1.26-5-3.54-9.64-5.66-12.07,1,2.53,1.9,5.34,2.81,7.6S501.7,182.6,502.69,183.07Z"/><path class="cls-2" d="M489.82,169.29c-1.12-2.66-2.47-5.2-3.76-7.76a21.87,21.87,0,0,0,1,5c.57,2.05,1.32,4,2.34,4.46-.38-1.05-1.14-2.58-.83-2.76C489.09,169.26,489.52,169.67,489.82,169.29Z"/><path class="cls-2" d="M502,162.39c-1-.61-4.48-8.27-4.73-9.58-1.11-.19.48,3.54,2.15,6.63S502.65,165.16,502,162.39Z"/><path class="cls-2" d="M500.88,149.32c-.39-1.86-2.31-5-4.23-8.33C495,140.21,500.08,150.59,500.88,149.32Z"/><path class="cls-2" d="M503,120.51a34.29,34.29,0,0,0-6.9-7.41c2,3.18,4.29,7.28,6.53,9.57C503.28,122.45,503.44,121.77,503,120.51Z"/><path class="cls-2" d="M471.45,136.79c-2-2.94-4-5.75-4.74-5.46C467.43,133.33,470.71,137.63,471.45,136.79Z"/><path class="cls-2" d="M472,114.7c-.84.07,1.11,3.29,3.35,6.22s4.52,5.79,4.9,4.75a31.93,31.93,0,0,0-3.69-5.8A40.9,40.9,0,0,0,472,114.7Z"/><path class="cls-2" d="M474.77,108.69c-.35,1.23,2.82,5.3,4.58,8.25,1.62,1.38,3.71,4.47,4.59,4.39C482,117.7,478.53,113.42,474.77,108.69Z"/><path class="cls-2" d="M455.36,116.55c-3.14-3.43-4.74-5.45-5.22-6.89C445.14,106.53,453.48,116.07,455.36,116.55Z"/><path class="cls-2" d="M460.36,49l1.21-1.4-7.32-5.46c-2.37-1.75-4.76-3.34-7.08-5-4.62-3.36-9.4-6.34-14.46-9.65A258.83,258.83,0,0,0,392.58,6.91l6.92,4c2.53,1.4,5.29,2.81,8.19,4.31,5.7,3.17,12.07,6.4,18.35,10.13C438.67,32.63,451.42,41.07,460.36,49Z"/><path class="cls-2" d="M287.93,35.17C288,41,286.46,43.49,280,49.55c-1.31,1.27-2.94,2.44-4.54,3.79,2.09-1.78-3.44,2.23-3.71,2.41-2.23,1.43-4.78,2.72-7.24,4.3-.85.51-8.91,4.86-7.27,4.13-12.58,6.65-24.53,13.25-37.14,21.22s-25.91,17.33-39.56,30.54c-1.88,1.66-4.18,4.23-7,7-1.38,1.39-2.77,3-4.27,4.59L167,129.94l-2.23,2.66a184.92,184.92,0,0,0-16.51,22.33,190.82,190.82,0,0,0-25,59c-.5,2.49-1.16,4.89-1.56,7.32l-1.25,7.17q-.43,3.57-.87,7.08c-.33,2.32-.37,4.67-.6,7-.08,1.16-.22,2.3-.26,3.45l-.09,3.45c0,2.29-.24,4.55-.12,6.83l.09,6.81.44,6.77A169.91,169.91,0,0,0,133,329.31a168.18,168.18,0,0,0,34.28,50.52c28.71,29.27,67.85,47.55,108.54,50a169.18,169.18,0,0,0,177.59-136l1-5.34.71-5.39.37-2.7c.09-.9.14-1.81.21-2.72l.44-5.43c.12-1.82.09-3.65.15-5.47s.17-3.64.05-5.47c-.14-3.64-.12-7.3-.54-10.91a166.61,166.61,0,0,0-3.15-21.49l-1.32-5.25-.64-2.63-.79-2.59-1.56-5.18-1.82-5.09a165.76,165.76,0,0,0-20-38.12A174.24,174.24,0,0,0,413,153.32l-1.79-2c-.61-.65-1.27-1.27-1.89-1.91l-3.78-3.82-4-3.63-2-1.83-2.06-1.72a168.3,168.3,0,0,0-23.32-17.66,172.75,172.75,0,0,0-26-13.27,175.75,175.75,0,0,0-57-12.75,7.17,7.17,0,0,1-3.24-3.21,201,201,0,0,1,47.82,6.61l2.92.74c1,.26,1.91.59,2.87.88l5.75,1.75c3.75,1.41,7.58,2.57,11.25,4.17,3.75,1.4,7.33,3.13,11,4.74,1.82.81,3.55,1.79,5.34,2.65l2.67,1.32c.88.46,1.73,1,2.6,1.45,4.64,3.29,9.55,6.82,11.45,9.49,2.87,1,6.74,3.78,10.16,6.86l2.58,2.18c.83.73,1.6,1.46,2.35,2.09a16,16,0,0,0,4.08,2.73c-.81,1.58,1.75,4.76,5.14,8.21,1.59,1.8,3.4,3.68,5.1,5.46s3,3.62,4.07,5.06c2.07.28-1.66-3.36.39-3.09,4.77,6.67,11.26,15.7,15.6,22.24.35-1.29-.34-3.42-1.51-6-1.34-2.46-3.12-5.37-5-8.19-1-1.39-2-2.78-2.85-4.12S430,156.12,429.2,155c-1.48-2.35-2.35-4.39-2.06-5.77-2.33-2.28-4.71-4.93-7.2-7.69s-5.09-5.63-7.88-8.26a74.07,74.07,0,0,0-16.38-13.12c1.53-.63-3.6-3.43-3.79-4.59-1.42-.76-2.65-1.66-3.89-2.43s-2.38-1.57-3.49-2.33-2.18-1.47-3.27-2.09a19.54,19.54,0,0,0-3.41-1.39c-9-6.81-21.66-13.06-35-17.65s-27.36-7.42-39.14-9.84c3.65.08,7.27.69,11,1,1.84.15,3.65.58,5.5.86s3.69.59,5.52,1L331.18,84l2.78.63,2.74.79L342.21,87c1.83.57,3.63,1.25,5.46,1.87a179.12,179.12,0,0,1,42.18,21.55c26.68,18.45,49.46,44.58,65.07,75.42,1.43,5.65,3.8,9.37,5.89,16.73,3.57,5.44,5.68,16.07,7.19,23.77,1.12,1.15,1.8,5.2,2.42,9.25.45,4.08,1.14,8.12,2.45,9.37a170.19,170.19,0,0,0-8.2-40.9c-.54-1.62-1.08-3.24-1.62-4.88l-1.91-4.86c-.67-1.62-1.22-3.31-2-4.93l-2.25-4.95c-.72-1.69-1.56-3.35-2.45-5l-2.63-5.13-3-5.17-1.53-2.67-1.7-2.63a33,33,0,0,0-2.24-4.71c-1-1.78-2.4-3.66-3.85-5.71,2.29,1.14,1-1.54-1.36-5-1.88-1.47-.1,2.21-2.53.35-8.25-10.36-17.87-17.61-20.81-23.49-2.57-2.15-5.49-4.37-8.33-6.74-1.48-1.1-3-2.23-4.4-3.36s-2.85-2.27-4.27-3.27c-5.53-4.27-10.42-7.78-12.21-10.26,6.47,2.34,14.73,10.85,19.6,12.48,2.5,2.12,5.92,5.84,9.37,9.07,3.25,3.45,6.65,6.34,8.75,7.36a13.68,13.68,0,0,0-3.2-5.15,59.91,59.91,0,0,0-5.84-6c-4.34-4.1-9.28-8-11.88-11.72a125.3,125.3,0,0,1,21,17.62c5.94,6.21,11.13,12.21,16,17.52-2-2.51-4-5-6-7.63s-4.07-5.23-6.16-7.89l-1.59-2-1.71-1.89c-1.15-1.26-2.31-2.51-3.5-3.74a68.68,68.68,0,0,0-7.81-6.71c.51-.59-2.36-2.52-1-2.71,1.2-.28,4.2,2.5,6.53,4.14,1.53-.61,1.29-.34,1.75-1.89,1.44,1.16,2.08,1,3.42,2a182.27,182.27,0,0,1,29.22,33.29A228.77,228.77,0,0,1,472,182.65c12.25,26,17.72,56.12,18,85.94a181.72,181.72,0,0,1-4.51,40.74,297.85,297.85,0,0,1-11.65,38.55l2,1c2.07-3.75.29-2.92,1.22-5.3a89.4,89.4,0,0,0,9.59-26.16c2.55-12.15,6.37-25.93,6.9-39.26.32-4.81-.51-8.82-.47-13.36-.24-12.5-.32-24.15-2.24-35.72-.58-3-1.25-5.86-2.06-8.61a65.28,65.28,0,0,1-2.08-8.14c-.41-2.15-.95-4.21-1.42-6.23s-.93-4-1.59-5.87c-1.26-3.76-2.31-7.46-3.84-11L477.69,184c-.71-1.78-1.61-3.48-2.41-5.26s-1.64-3.57-2.55-5.37l-2.85-5.5c-6.4-12.18-13.45-25.32-23.5-36.91a236.84,236.84,0,0,0-23.22-23.84,60.22,60.22,0,0,0-5.15-6.29c-3.49-3.08-4.32-2.87-7.65-5.47,2.44-1-4.52-3.16-5.9-5.58,1.23,0,3.43,2.15,1.75-.11a22.54,22.54,0,0,0-8.08-5.36c-2.55-1.13-4.85-1.62-6.05-2.69-2.4-1.51,2.21.15-.41-1.94a87.9,87.9,0,0,0-10.84-6.51c-3.74-1.92-7.55-3.52-11.07-5.12-3.61-1.41-6.93-2.84-9.84-4.16a33,33,0,0,1-7.22-3.9A264.19,264.19,0,0,1,382,71.4a188.73,188.73,0,0,1,32.16,19,59.07,59.07,0,0,1,5.55,4.6c1.8,1.65,3.65,3.22,5.29,4.86,3.36,3.22,6.59,5.87,9.49,7.14a29.32,29.32,0,0,0-2.79-3.58c-1.13-1.23-2.42-2.51-3.79-3.84a120.42,120.42,0,0,0-9.18-7.86c-1.56-1.32-3.2-2.5-4.76-3.65s-3-2.29-4.39-3.36a46.43,46.43,0,0,1-6.32-5.33c19.36,11.74,38.33,28.69,54,48.82a219.62,219.62,0,0,1,20.85,32.26,222.62,222.62,0,0,1,14.7,34.82,235.13,235.13,0,0,1,10.18,45.69,223.93,223.93,0,0,1,.57,46.95c-2.9,31.22-12.88,61.92-29.5,88.32a231.48,231.48,0,0,1-30.07,38c-2.74,3-5.8,5.63-8.7,8.45s-6.1,5.31-9.13,8c-3.2,2.47-6.3,5.06-9.57,7.44s-6.5,4.82-9.95,6.94a234.92,234.92,0,0,1-43,22.36A231.86,231.86,0,0,1,317,480.24c4.57-.42,9-1.31,13.46-2,2.23-.32,4.4-.91,6.59-1.35s4.36-.92,6.51-1.46a215.7,215.7,0,0,0,25.06-8,196.25,196.25,0,0,0,45.32-24.53l5.55-4.08,5.35-4.31,2.67-2.15,2.57-2.27,5.13-4.53A236,236,0,0,0,454,405.94a226.58,226.58,0,0,0,16.29-21.47c2.37-3.8,4.92-7.46,7.05-11.37l3.32-5.77,3-5.9a216.66,216.66,0,0,0,23.41-99,182.19,182.19,0,0,1-1,33.09,201.93,201.93,0,0,1-8,35.78c-.95,2.74-2,5.76-3.22,8.77s-2.56,6.1-3.81,9.09-2.56,5.82-3.5,8.49a37.57,37.57,0,0,0-2.07,7.18c5.16-7.65,9.14-17.93,12.43-27.92l2.33-7.44c.7-2.46,1.37-4.86,2-7.17,1.47-4.58,2.49-8.9,4-12.5a36.8,36.8,0,0,1,.4-8.44c.23-1.72.57-3.45.89-5a20.46,20.46,0,0,1,1-3.74c-.25-7.72.33-20.82.21-33.88,0-6.53-.42-13-.71-18.84-.59-5.77-.88-10.87-1.49-14.5,2.92,6.41,2.32,17.4,5.15,22.67.14,3.49.06,7.19.22,10.8s.14,7.14.12,10.3c.08,6.33-.54,11.15-1.49,12.1a44.49,44.49,0,0,1,.06,5.3c-.13,1.78-.32,3.59-.55,5.4s-.49,3.63-.82,5.42-.77,3.55-1.15,5.3-.73,3.46-1.09,5.14-.79,3.27-1.1,4.84a51.54,51.54,0,0,0-1,8.73c.19-.73.39-1.53.61-2.38s.38-1.77.59-2.72c.42-1.88.89-3.91,1.39-6,1-4.08,1.79-8.29,2.74-11.56a15.2,15.2,0,0,1,0,5.3A64.41,64.41,0,0,1,509,312c-.59,2.75-1.15,5.51-1.55,7.84a15.16,15.16,0,0,0-.49,5.29,202.19,202.19,0,0,0,7.41-40.24,187.79,187.79,0,0,0-.89-38.3c.08-2.31.11-4.76,0-7.27s-.44-5.1-.73-7.74-.71-5.32-1.2-8-.89-5.41-1.53-8.07-1.19-5.32-1.78-7.94-1.29-5.15-1.83-7.66c-1.05-5-2.28-9.7-2.79-14.06a102.81,102.81,0,0,1,4.4,12.93c.62,2.33,1.25,4.68,1.87,7s1,4.73,1.5,7c2,9.19,3.3,17.47,5.39,21.72-3.34-26.92-10.3-53.73-24.51-81a214,214,0,0,0-17.51-27.63c-1.55-2.25-3.36-4.29-5-6.44s-3.36-4.26-5.19-6.26l-5.33-6.06-5.53-5.76a296.89,296.89,0,0,0-22.66-20.91C423.56,74,416,68.39,408.92,62.87c39.43,23.33,70.65,58.82,89.64,99.44a262.67,262.67,0,0,1,12.08,31.33,265.29,265.29,0,0,1,7.5,32.63A253.71,253.71,0,0,1,519.71,293,219.07,219.07,0,0,1,494,374.25a255.8,255.8,0,0,1-54.89,68.44c6.95-6,13-9.38,16.74-15.4,1,.33,3.64-2,6.31-4.44,1.38-1.65,3.17-4.07,5.34-6.75s4.48-5.83,6.86-9,4.66-6.45,6.83-9.42,4-5.72,5.59-7.8c1.27-1.7,2.28-1.61,3.4-3.24,6.74-10.21,13.53-24,18.55-37.2s8.69-25.72,11.25-33.11a321.13,321.13,0,0,0,1.75-78,288.5,288.5,0,0,0-16.53-68.93c1.94,5.27,5.27,12.84,8,20.86,1.47,4,2.56,8.12,3.67,12a88.22,88.22,0,0,1,2,10.78,59.06,59.06,0,0,1,2.44,9.79c.75,3.54,1.11,7.29,1.54,10.87.23,1.79.45,3.54.66,5.21s.34,3.27.56,4.74a24.69,24.69,0,0,0,1.87,7.12c-.1-3.71-.9-3.31-.91-7.66.65.09,1.12-.4,1.36-1.61-.09-2.55-.4-5.13-.7-7.73s-.59-5.22-1-7.82l-1.31-7.72c-.22-1.27-.43-2.53-.65-3.78s-.52-2.47-.78-3.68c-.5-2.42-1-4.78-1.45-7.05s-1-4.42-1.46-6.47-.84-4-1.15-5.8-.69-3.43-.9-4.93c5,14.14,9.41,31.52,10,47.16,3.76,21.34,3.44,43.89.44,64.65a220,220,0,0,1-15.72,54.52c-.95,3.72.31,1.21-.15,3.35A21,21,0,0,0,507.8,363c.46,1.46-1.11,4.71-3.53,8.25l-3.7,5.53c-1.22,1.86-2.51,3.6-3.42,5.23,0,0-.38,1.12-.84,2.44s-1,2.83-1.35,3.54a135.71,135.71,0,0,1-19.26,27.16,346.43,346.43,0,0,1-25,24.78,248.61,248.61,0,0,1-43.52,32,233.42,233.42,0,0,1-42.64,19.35c-4.09,2.48,3.88-.62,3.51.76a135.76,135.76,0,0,1-42.49,10.89c-.9-1,5.19-1.89,1.3-2.09-8.58.83-4.87,2.65-12.19,3.47,0-.74,4.21-1,3-1.85l-5.41.64-5.44.4c-3.63.28-7.25.55-10.89.56,2,1.53-.1,1.82,0,3.68a176.66,176.66,0,0,0,38.71-3.43c13-2.52,25.49-5.91,36.15-8.92a23.41,23.41,0,0,1,7.3-3.79c1.53-.55,3.19-1.08,4.94-1.63s3.53-1.27,5.38-2A257.5,257.5,0,0,0,510.46,370.26a265.89,265.89,0,0,0,20.87-57.55c.63-8.12,3.12-21.23,3.92-34.89s.78-27.63-.76-36.84c-.52-5,.6-4.28.29-8-.67-2.47-1.26-5.68-2-9.15s-1.53-7.21-2.15-10.82c-1.54-7.15-2.51-13.78-2.1-16.45-6.51-23.28-15.41-44.1-29.32-64.2-4.21-8.41-11.4-19.18-19.56-29.52S462.18,82.74,455.13,75a23.64,23.64,0,0,1,5.58,3.5c2.08,1.61,4.36,3.53,6.64,5.62,4.41,4.3,9,9,12.19,12.66a225.56,225.56,0,0,1,33.18,46.69,252,252,0,0,1,23.19,61.46c10.49,42.54,8.56,90.23-1.58,129a105.79,105.79,0,0,0,3.61-11.24c.93-3.68,2-7.2,2.57-10.64s1.34-6.69,2-9.76,1-6,1.65-8.68a218.22,218.22,0,0,1-15,62.54c-7.72,19.6-17.41,37-26,51.14C491,422.12,477.4,438.15,462,452.94S429,480.87,411,490.4c-9.41,6.22-23,12.89-37.25,17.75-3.58,1.15-7.1,2.44-10.66,3.38l-10.43,2.75c-6.83,1.43-13.14,2.8-18.57,3.5-2.34.5-4.76,1-7.25,1.5l-7.71,1.15c-5.26.85-10.8,1.13-16.47,1.6a236.51,236.51,0,0,1-35.1-.76c-23.69-2-46.51-8.23-63.49-14.15-3.69-1,.55,2.88-5.56.42-4.5-2-2.57-1.68-.6-1.34s4,.65-.27-1c-3.68-1.25-7-2.74-9.83-4a44.28,44.28,0,0,0-7.1-3.09c-4.17-1.58,2.64,3.11-3.88.25a256.23,256.23,0,0,1-49.5-30.72A259.48,259.48,0,0,1,36.06,327.16,262.92,262.92,0,0,1,32.8,214.93a258.66,258.66,0,0,1,46-105.47c1.75-3.34-1.94,1.16.12-2,1.63-2.08,1.52-.45,3.67-3.5,6.22-10,15.8-20,26.51-29.28s22.58-17.9,33.63-25.89a55.44,55.44,0,0,0-12.34,6.17,155.45,155.45,0,0,0-14.26,10.57c-4.83,3.78-9.25,8-13.44,11.43A70.82,70.82,0,0,1,92,85.19a97.84,97.84,0,0,1-7,10.06C82.3,99,79.13,103,76,107.13s-6.35,8.46-9.19,12.84l-4.29,6.39-3.72,6.23c-1.6,2.69-3.15,5.43-4.54,8.25s-2.87,5.61-4.2,8.46c-2.54,5.77-5.12,11.51-7.22,17.43-2.32,5.83-4.09,11.83-6,17.71l-2.54,8.9c-.41,1.48-.87,2.94-1.25,4.42s-.74,3-1.1,4.44c-2.07,7.76-3.85,15.25-5.41,22.69-.68,3.73-1.35,7.45-1.91,11.19-.41,3.74-.75,7.51-.94,11.31a278.29,278.29,0,0,0,5.92,69.49c1.09,4.35-1.11,1.56.43,6.87a318.87,318.87,0,0,0,14,40.56A300.74,300.74,0,0,0,65.3,405.22a278.76,278.76,0,0,0,61.79,70c3,1.74,7,4.26,10.39,6.2a110.77,110.77,0,0,0,12.07,9c2.23,1.39,4.55,2.73,6.87,4.08s4.65,2.69,7.06,3.86c4.76,2.42,9.42,4.84,13.9,6.91,2.22,1.07,4.35,2.14,6.36,3.21s4,2,5.73,3c1.6,0,4.32.94,8.33,2.43-.83.27-2.19-.1-.4,1a304.54,304.54,0,0,0,68.86,14.23,317.9,317.9,0,0,0,35.84,1.14l8.92-.43,4.45-.23,4.43-.41,8.81-.82,8.71-1.19c4.61.41,11.08-.84,17.77-2.46A134.27,134.27,0,0,0,373.8,518c6-1.87,12.3-4.38,19.14-7.1l10.41-4.68c3.57-1.67,7.14-3.61,10.86-5.53,2.14-1.07,4.37-2.42,6.77-3.77s4.94-2.78,7.47-4.32c5-3.18,10.34-6.4,15.07-9.89,2.38-1.72,4.75-3.31,6.84-5s4.07-3.26,5.83-4.73a57.81,57.81,0,0,0,7.45-7.11l4.38-3.67a4.71,4.71,0,0,0,1.12-.86,1.44,1.44,0,0,1,.08-.25q3.22-3,6.37-6.14c.87-.57,1.7-1.06,2.61-1.68,5.81-7.38,15-16.42,22.78-26.06,1-1.19,2-2.36,3-3.55l2.75-3.58c1.79-2.37,3.52-4.65,5.07-6.87a84.12,84.12,0,0,0,6.87-11.91c2.69-4.67,4.19-7,5.7-9.23s2.86-4.34,5.35-8.49l3.78-9.29c1.13-2.75,2.35-5.19,3.45-7.83s2.27-5.39,3.55-8.62,2.46-7,3.89-11.61c.51-1,1-2,1.52-3.14s.91-2.28,1.36-3.5c.89-2.43,1.77-5.06,2.63-7.84s1.5-5.77,2.23-8.84,1.42-6.26,1.91-9.55c2.44-13.1,3.39-27.47,4.31-40.56.21-4.59.78-8.73.91-12.48s.32-7.14.19-10.18c-1-15.83-4.54-32.64-7.76-49.28a10.57,10.57,0,0,0,0-2.38,61.73,61.73,0,0,0-2.83-12.2c-1.17-4-2.81-7.93-4.2-12a16,16,0,0,0-1.15-2.58,299,299,0,0,0-17.14-39.5,191.1,191.1,0,0,0-25.58-36.95c.44-1.64-1.19-4.55-3.76-7.65s-5.79-6.59-8.37-9.57c2.66,1.37,7,6.2,5.5,2.3-2.45-3.47-6.18-6.85-9.86-10.23s-7.79-6.34-11-9.08c-2.93-3.58-6.39-7.22-6.21-8.93,22.15,18.23,43.55,43.18,53.89,61.55.06,1.09-2.75-.79-.63,2.43a39.28,39.28,0,0,1,3.31,4.31c.81,1.3,1.41,2.4,1.92,3.27,1,1.75,1.64,2.58,2.76,2.23a38.22,38.22,0,0,0,2.56,5.59c.81,1.62,1.69,3.25,2.68,5.75,7.78,9.59,15.49,27.38,20.68,46.48,1.25,4.79,2.63,9.58,3.59,14.41s2.14,9.55,2.93,14.19,1.79,9.09,2.48,13.33,1.67,8.2,2.36,11.84a254.62,254.62,0,0,0-7-44.24,271.14,271.14,0,0,0-12.69-37.17,290.55,290.55,0,0,0-16.66-32.85c-3-5.34-6.43-10.44-9.76-15.72-1.74-2.6-3.57-5.16-5.38-7.78l-2.75-3.94L508.37,92a285.65,285.65,0,0,0-54.89-53.82A295,295,0,0,0,419.8,16.59,299,299,0,0,0,383.41,0a281.48,281.48,0,0,1,56.27,23.4,24.63,24.63,0,0,0,3.11,1.46l3.54,2.24c3.67,2.63,7.28,5.34,10.91,8s7,5.67,10.52,8.52c32.71,27.85,59.56,62.67,77,102a275.53,275.53,0,0,1,19.29,61.22,271.85,271.85,0,0,1,4.28,63.57c-.21,6.38-.67,12.59-.86,18.56s-.6,11.67-.66,17.06c-8.36,48.17-28.77,94.22-59.44,132.12l-2.85,3.57-3,3.46-6,6.89c-4.23,4.39-8.3,8.93-12.79,13.07a286.67,286.67,0,0,1-27.88,23.7A282.91,282.91,0,0,1,390.8,524.6a274.48,274.48,0,0,1-99.57,19.6,274.16,274.16,0,0,1-185.7-69.33,273.57,273.57,0,0,1-90-169.59A279.89,279.89,0,0,1,13.61,258a259.93,259.93,0,0,1,6.21-46.76,263.11,263.11,0,0,1,35.91-85.7,260.33,260.33,0,0,1,61.5-66.16,230,230,0,0,1,58.39-32.08c20.29-7.38,40.42-11.13,57.73-11.58,15.05-.34,25,2.89,33,6.83,4,2.05,7.53,4.09,11,6.31S284.22,33.23,287.93,35.17Zm225.54,70.62a52.75,52.75,0,0,0-5.56-8.29c-2.32-2.75-4.59-5.06-5.6-5.52,2.26,3.34,5.34,7.28,6.86,10.28C508.83,99.35,513.79,108.67,513.47,105.79Zm46.59,132.07c.35-2.11-.92-16.71-2.17-15.73C558.69,226.87,559.23,236,560.06,237.86Zm-2.48,70.27a24.05,24.05,0,0,1,1.5-7.69,40.44,40.44,0,0,0,2.19-7.84c-1-1.71-.57-8.82,0-16.38.12-3.79.25-7.69.25-11.08a32.31,32.31,0,0,0-.79-7.94c.11,1.78.22,3.87.25,6.15s-.13,4.77-.2,7.36c-.08,5.18-.63,10.78-1.11,16-.12,1.32-.24,2.61-.35,3.86l-.47,3.65c-.28,2.36-.54,4.54-.77,6.44C557.67,304.5,557.33,307.21,557.58,308.13Zm1.94,13.21c.81-2.5,1.39-5.17,2-7.95s1.29-5.65,1.86-8.62,1-6,1.4-9.16c.22-1.55.46-3.12.64-4.71s.27-3.18.42-4.78a222.09,222.09,0,0,0,.09-37.8c-.05,3.66-.09,7.09-.13,10.35,0,1.63,0,3.21-.12,4.76s-.19,3.05-.28,4.53c-.19,3-.37,5.8-.54,8.59s-.53,5.51-.79,8.24C563.12,295.71,561.76,306.64,559.52,321.34Zm-97.9,158.9c1.7-1.25,4-3.19,4.43-3.06-.76.64-1.37,1.55.22.29,0-.58,1.17-1.75,2.28-2.92,9.48-7.22,26.12-24.78,13.07-12.32C477.59,466.05,467.93,474.62,461.62,480.24Zm-7.88-1.77c3.46-2.4,6.95-4.92,9.36-8A59.28,59.28,0,0,0,453.74,478.47Zm-12.8,9.25c4.81-3.75,5.82-3.41,10.23-6.8C449.64,480.25,442.12,485.73,440.94,487.72Zm-32,18.17c.16,1.53,11.4-4.36,12.57-6.21-3.8,2.14-5.49,2.94-6.93,3.61Zm-50.74,19.42a47.47,47.47,0,0,0,8.54-2C366.68,522.23,357.84,524.33,358.18,525.31Zm-32.7,6.47c2.64-.39,6.38-.9,9.75-1.47s6.38-1.11,7.51-1.75C337.26,529.61,327.72,530.33,325.48,531.78Zm-47.56,8.49,9.09.16c2.9,0,5.67-.1,8.33-.15s5.21-.08,7.67-.21l7.11-.49c2.29-.18,4.5-.32,6.65-.55l6.28-.85a104.64,104.64,0,0,0,11.84-2.25,130.41,130.41,0,0,1-15.7,2.31c-2.72.33-5.46.44-8.17.57l-8,.37c-5.21.1-10.13.08-14.42.29A62.5,62.5,0,0,0,277.92,540.27ZM230.26,526c.66.27,1.91.68,3.43,1.11s3.33.74,5.06,1.06c3.48.63,6.69,1,7,.44C241.86,527.69,231.6,525.11,230.26,526Zm-3.66,7.07,6.09,1.37,7.66,1.46c4.91,1,8.79,1.4,7.43.84-2.93-.27-8.89-1.55-13.8-2.45S225.29,532.35,226.6,533.07ZM150.28,503c9.36,5.39,18.83,10.25,27.52,14.25s16.71,6.86,23.08,8.2c-3.68-1.28-8.09-2.78-12.65-4.79l-7-3c-2.38-1-4.73-2.21-7.08-3.3s-4.69-2.15-6.91-3.27l-6.4-3.19C156.67,506,153.11,504.16,150.28,503Zm-16.46-10.68c3.68,2.51,5.52,3.69,7.17,4.78s3.11,2.14,6.2,4.11c1-.21-2.16-2.16-5.5-4.38A63.68,63.68,0,0,0,133.82,492.32ZM15.61,255.44c-.12,2.76-.12,6.09-.88,5.24-.06,4.42.18,9.7.26,15.28.1,2.78.34,5.64.52,8.5s.31,5.73.7,8.51a172.48,172.48,0,0,0,4.32,25.47c-3.62-17.74-5-38.16-4.29-59.45C15.76,258.94,16,255.9,15.61,255.44Zm11.65-67.22c-.88,3-1.81,5.76-2.48,8.58s-1.33,5.63-2.05,8.64-1.24,6.23-1.9,9.86q-.48,2.72-1,5.77c-.31,2-.55,4.22-.85,6.55.6-.78,1.21-3.79,2.13-7.77s1.82-9,2.92-13.81,2-9.49,2.75-12.82S27.78,187.84,27.26,188.22ZM344.88,511.87c2.84-.8,5.68-1.09,8-1.58s4-1,4.76-2c-1.89.38-4.13,1-6.37,1.6A53.64,53.64,0,0,0,344.88,511.87ZM527.8,272.35a56.41,56.41,0,0,1-.15-5.65c0-2.16.1-4.48,0-6.62-.18-4.28-.52-7.82-1.61-7.83-.83,3-.76,7.46-.35,11.45S526.75,271.22,527.8,272.35Zm-4.31,32.17a20.58,20.58,0,0,0,1.24-5c.16-1.78,0-3.18-.7-2.74C523.53,300.56,523.14,303.11,523.49,304.52Zm-21.85,28.05c.2-.81.58-1.86,1-3s.75-2.35,1.09-3.44c.65-2.17,1-3.86.19-3.5-.57,2-1.26,4.34-1.81,6.26S501.17,332.29,501.64,332.57Zm2.77,1c1.3-1.78,2.62-7.22,1.49-7.24C504.69,331,503,332.75,504.41,333.56Zm-1,15.55c7.31-15.2,12.91-34.95,14.86-55a239.84,239.84,0,0,0-1-56.58,74.76,74.76,0,0,0,0,13.44c.08,2.62.23,5.31.47,7.84s.56,4.93.8,7c-.95-.49-1.26,2-1.27,5.88.5,13-1.25,28.29-4.32,42.24S505.78,340.49,503.38,349.11ZM397.86,456.34c1-.43,14.2-6.1,25.11-15.11,2.52-1.65,4.61-3.06,6.5-4.41a63.84,63.84,0,0,0,5.15-4.24c3.38-2.91,6.71-6.51,11.86-12.24-.32.8,3.07-2.22,7.32-6.24,2.05-2.08,4.25-4.46,6.33-6.7s3.83-4.54,5.21-6.22c3.37-4.08,6.31-8.17,9.18-12.14,1.35-2.05,2.59-4.14,3.75-6.25.57-1.05,1.12-2.12,1.64-3.21s.92-2.23,1.32-3.38c-.51.49-1,.84-1.5,1.27a51.26,51.26,0,0,1,1.74-5.48c.71-1.89,1.53-3.81,2.21-5.76a172.47,172.47,0,0,1-15.18,25.25c-2.78,4.07-5.95,7.85-9,11.71-1.57,1.9-3.24,3.7-4.86,5.56s-3.24,3.69-5,5.42c-2.92,3-5.39,5.65-7.9,7.91s-4.69,4.56-7.22,6.64L430.7,432l-2,1.75-2.24,1.75c-3.07,2.39-6.49,5.13-10.81,8.06-.35.22-2.4,1.71-4.51,3.1l-4.64,2.88c-3.94,2.68-8,4.84-11.73,7s-7.4,3.81-10.58,5.51c-3.26,1.54-6.15,2.89-8.51,4.13a62.79,62.79,0,0,0-5.53,3c-.91.72-.17.6,1.59-.05.88-.33,2-.75,3.33-1.34l4.33-2.06,4.93-2.36,5-2.64,4.7-2.39C395.4,457.59,396.72,456.89,397.86,456.34Zm23.46-355.28-7.43-5.89C413.31,96.34,420.52,102.33,421.32,101.06ZM463,140.67c-3.74-5.14-7.12-10.83-10.15-15.28s-5.78-7.52-8.17-7.11C449.69,123.92,458,135.78,463,140.67Zm8.21,12.74c-3.49-4.92-4.14-7.47-6.48-8.95C467,147.93,470.11,153.65,471.16,153.41ZM490,194.69,488.6,190c-.53-1.62-1.17-3.27-1.8-5l-2-5.19c-.78-1.71-1.56-3.45-2.35-5.18s-1.55-3.47-2.43-5.13-1.78-3.28-2.64-4.87c-1.67-3.21-3.55-6.08-5.21-8.66C479.42,169,484.65,182.54,490,194.69Zm10.51,49.72a14.21,14.21,0,0,0,0-4.06c-.22-1.48-.6-2.73-1.07-2.76a17.84,17.84,0,0,0,.12,4C499.69,243.11,500,244.37,500.47,244.41ZM360.76,107.78c-2.73-1.21-5.18-1.45-3.65,0C359.68,109,360.61,108.77,360.76,107.78ZM392,126.59c-1.16-.12-3.41-1.33-2,.75C393.31,130.28,393.67,128.35,392,126.59Zm31.68,33.71a41.81,41.81,0,0,0-5.35-7,18.88,18.88,0,0,1-4.35-6.46c-.78,2.51-4.69-4.28-5.14-2.77,1.39,1.41,2.73,2.87,4,4.31s2.42,3,3.63,4.42C419,155.59,421,158.38,423.67,160.3Zm39.44,61a26.25,26.25,0,0,1-.7-3c-.23-1.15-.56-2.35-.83-3.45-.57-2.19-1.15-3.91-1.81-3.5C461.42,215.51,461.34,218.66,463.11,221.28ZM481,245.6c.2,2.55.4,5.57.53,8.16s.29,4.76.86,5.62c-.1-2.75,0-5.61-.28-8.06A22.51,22.51,0,0,0,481,245.6Zm-8.12,16.12,1.47,0c-.15-3-.14-6.31-.4-9s-.84-4.78-1.67-5.37a26.39,26.39,0,0,0,.34,6.08A80.85,80.85,0,0,1,472.9,261.72Zm-4.5,12.81c.19-1.78.24-4.07.32-6.48s.26-4.93.09-7.2c-.19-4.53-.47-8-1.22-7.38a103.29,103.29,0,0,1,.26,10.72C467.67,268.46,467.81,272.67,468.4,274.53Zm5.13.45a19,19,0,0,0,.46-3c.09-1.39.15-3,.15-4.51,0-2.94-.3-5.19-1.25-3.38.4,1,.4,3.15.41,5.34,0,1.09,0,2.19.05,3.16A9.86,9.86,0,0,0,473.53,275Zm-.22,7.24.39-4.81c-.7.11-1.29.67-1.65,2.24C472.45,282.72,472.6,280.56,473.31,282.22ZM171.77,36.36c8-4.31,21.16-7.23,27.2-11.55C191.07,26.69,177.24,30.93,171.77,36.36ZM119.1,72.56c-2.12.3,4.28-5.63,8.56-7.7,2-2.4-1.21-.42-2.41-.44-3.41,3.5-6.46,5-8.34,8.09C120.87,69.18,113,78.22,119.1,72.56ZM97.28,94.82c.9-.9,1.47-1.22,1.61-.72,6.49-6.87,11-11.95,12.71-15.15-1.18,1.24-2.51,2.47-3.9,3.71l-4.07,3.94C101,89.24,98.49,91.94,97.28,94.82ZM55.37,195.56c1.55-6.55,1.93-6.07,3.49-12L57.48,183a52.26,52.26,0,0,0-2,7.55A23.58,23.58,0,0,0,55.37,195.56Zm-6.53,30.56c.94-2.18,1.91-7.68,2.91-13.33s2-11.46,2.4-14.33a13,13,0,0,1-2.32,4.22,106.06,106.06,0,0,0-2.53,13.53c-.37,3.88-.39,6.62.1,6.84C49,223,48.45,225.66,48.84,226.12Zm-2.35,17a15.46,15.46,0,0,1,.8-3.08,22.36,22.36,0,0,0,.7-4.6c-.43-.56-.41-2.3-1.26-1.76A33.5,33.5,0,0,0,46.49,243.14Zm47.07,88.19c-.28-1.25-.07-1.56-.86-2.53-9.63-27.7-11.86-55.07-9.68-81a230,230,0,0,1,19.71-74.54c.88-1.87,1.78-3.77,2.69-5.72.46-1,.92-2,1.38-3s1-1.94,1.56-2.92l3.22-6c1.21-2,2.45-3.94,3.69-5.94,1.11-1.83,2.42-3.62,3.74-5.42l3.93-5.46a91.41,91.41,0,0,0,7-10.48,158.48,158.48,0,0,0-21.49,29.75A207.92,207.92,0,0,0,93.7,190.72a228.46,228.46,0,0,0-13.15,66.34c-1.36,19.92,1.82,46.38,8.57,65.4.19.58.37,1.33.56,2.15s.47,1.66.75,2.49c.55,1.65,1.22,3.14,2.15,3.62C92.93,330.6,93.22,331.27,93.56,331.33Zm16.85-164.95c.61.35-.67,2.33.5,2.24a20.09,20.09,0,0,0,2.84-4.35C112.89,163,111.6,165.16,110.41,166.38ZM107,177.27c2-4.05,3.49-5.5,2.51-7.45C107.46,173.37,106.34,175.07,107,177.27ZM86.71,260.72c.91.15,1.18-1.32,1.54-2.58a135.47,135.47,0,0,1,2.51-26.44c1.62-7.92,3.43-15.07,5.29-21.83.75-2.59,1.43-5.28,2.31-7.66s1.6-4.56,2-6.25c.38-1.53.38-3,.82-4.28.36-1,1-1.41,1.6-3.07.41-1.09.07-2,.58-3.48.44-1.13,3.79-5.14,2.15-5.66a228.28,228.28,0,0,0-13.25,38.69A196.56,196.56,0,0,0,86.71,260.72Zm.83,20.83a46.66,46.66,0,0,1-.35-9.72c.16-3.15.08-5.78-1.22-6.76a44.83,44.83,0,0,0,0,9.78C86.38,278.2,87,281,87.54,281.55Zm13.74,68.67c-.2-.5-.38-1,0-1l-.73-1.62C99.13,346.75,100.78,350.85,101.28,350.22Zm-.92,9.82q-1.64-3.07-3-2.59C98.65,360.27,100.54,361.91,100.36,360Zm3.27-1.7c-1.16-1.82-2.6-5.95-3.56-6.23C100.13,353.53,102.62,358.79,103.63,358.34Zm-6.85,12.08c-1.23-3-3.88-5.42-3.16-2.59C94.55,368,96.1,372,96.78,370.42Zm4.5-7.77c.71,3.21,6.81,12.14,7.18,11.64-1.39-2.51-2.51-4.65-3.75-6.47S102.26,364.39,101.28,362.65Zm11.61-3.29c.44-.19,1,.71,1.39.21C113.73,357.47,111.93,358,112.89,359.36Zm7,44.45c.57-.46,2,1.65,2.36.48-.84-2.38-2.77-2.49-4.49-4.83-1.41-2.11-3-4.36-4.64-6.59s-3.11-4.51-4.63-6.44c-2.63-3.36-5.83-7.88-8.24-9.27a42,42,0,0,0,7.19,10.06c2.7,2.94,4.87,5.61,5.07,7.94A27.4,27.4,0,0,1,119.9,403.81Zm.57-20.22a24.49,24.49,0,0,0-3.39-5.15c-1.39-1.86-2.86-3.71-3.91-5,.61,1.11,1.88,3.74,3.33,6S119.57,383.65,120.47,383.59Zm-11,43.79c1.14-.7-4.55-7.32-6.92-8.48C106,422.5,105.63,423.56,109.52,427.38ZM155.88,431l-1.45-1.13-.46.57,1.46,1.14Zm6.64,1.88a30.81,30.81,0,0,1,7.11,3.82c2.39,1.57,5,3.24,7.81,4.94.29-.37,1.24.19,1.34-.45a65.6,65.6,0,0,0-7.16-5.69c-2.59-2-5.21-3.56-7.05-3.87-1.16-1.73-3.2-3.92-4.6-5.83L156.35,423c-1.26-1-2.56-2.21-3.93-3.4s-2.8-2.42-4.21-3.72l-4.18-4c-5.63-5.4-10.86-11.08-14.82-14.72-1.07-1.06-2.71-5.14-3.71-3.92a10.9,10.9,0,0,0,1,2.79,32.05,32.05,0,0,0,2.08,3.3,62.38,62.38,0,0,0,6.47,7.75l4,4.15c1.41,1.36,2.9,2.68,4.34,4,2.85,2.75,5.85,5.25,8.48,7.67l5.38,5.18A55.54,55.54,0,0,0,162.52,432.87Zm5.75-1.78c-1.75-1.48-2.25-2.2-3.85-2.28A7,7,0,0,0,168.27,431.09Zm8.78,14.66-2.33-1.49C173,444.43,177.64,447.4,177.05,445.75Zm13.21,8.57c2.6-1.63-6.39-4.22-4.77-2.87C187.94,451.68,186.88,453,190.26,454.32Zm3.53,5.5c.06-.46.59-.86-.37-1.4-1,1.11-3.29-.59-4.33-1.81-.1.56-.92,1.05.17,1.74C190.23,458.22,191.72,458.75,193.79,459.82Zm39.82.67c-1.8-.41-7-2.55-9.3-2.78C224.81,458.76,232.81,461.83,233.61,460.49Zm120.07,20.27c.48-1,2.29-2.59-.67-2.48l-5.59,1.56C346,481.85,347.78,482,353.68,480.76Zm-16,18.79c3.19-.88,7.74-1.67,11.65-2.64s7.16-2.09,7.84-3c-3.21.81-7.45,2.08-11.26,3S338.86,498.77,337.71,499.55ZM310.14,484c5.58-.43,11.66-.14,17-2.71C322.19,482.05,312.47,482.79,310.14,484ZM420,418.83a39,39,0,0,1-5.31,4.79c-1.38,1-2.76,2-6.12,4.15l.63.91c3.27-2.35,4.45-3.31,5.68-4a43.77,43.77,0,0,0,5.27-3.53C420.75,420.06,420.88,419.21,420,418.83Zm10.79-9.73c-4,3.23-2.4,5.28.53,2.53C431.54,410.41,433.38,407.71,430.81,409.1ZM454,383.7a34.4,34.4,0,0,1-4.27,5.37c-1.31,1.39-2.53,2.77-4.19,4.83.56.18.72,1.26,2,0C447.47,391.08,454.69,385.66,454,383.7Zm15-23.47c1.6-3.12,3.77-6.85,3-7.4C470.88,355.35,467.21,360.68,468.94,360.23ZM439.07,362c.92-1.85,4.15-5.5,3.49-6.09C441.13,358,438.34,360.88,439.07,362Zm15.85,19.07c1.27-.13,3.79-3.25,5.29-4.36-.23-1.06,2.62-3.06.12-1.54a23.89,23.89,0,0,0,2.58-4.66c1.27-1.58,1.55-1.91,1.56-1.55a12.63,12.63,0,0,1-.64,2.15c2.47-3.9,2.58-5.8,3.8-8.6-3.31,3.47-4.3,6.35-6.89,11.34C459.73,373.37,458.19,377.44,454.92,381.1ZM397,407.1a176.09,176.09,0,0,0,23-20.87,132.76,132.76,0,0,0,16.5-21.73,175.64,175.64,0,0,1-18.13,21.91C411,394.17,402.87,401.47,397,407.1ZM361.2,429.18l4.77-2.13c1.64-.74,3.24-1.65,4.9-2.48,3.34-1.61,6.57-3.62,9.72-5.51s6-4.09,8.62-6c2.5-2.1,4.72-4.07,6.45-5.84a107.35,107.35,0,0,1-17.18,12.07c-1.41.83-2.8,1.64-4.19,2.47L370,424.09c-1.44.78-2.83,1.69-4.31,2.5S362.72,428.25,361.2,429.18Zm-13.13,1.25a10.72,10.72,0,0,0,5.36-2c.08-1.29-2.66-.16-5.71,1Zm-51.54,14.35c14.61-.85,30.57-2.76,44.08-6.93,1.47-.37,3.24-1,5.13-1.72s3.91-1.36,5.74-2.18c3.65-1.67,6.8-3.2,7.45-4.15a160.06,160.06,0,0,1-31.72,10.4A256.29,256.29,0,0,1,296.53,444.78Zm-9.65,23c.09,1.1,3.34.53,5.32.65a71.8,71.8,0,0,0,7.59.23c2.27-.12,4.52-.34,7.52-.69,3.32-.38,6.77-1,10.27-1.42s6.95-1.18,10.31-1.7c6.65-1.32,12.7-2.72,16.79-4.3-.09-.47.95-.8.54-1.3C327,464.88,310.34,466.91,286.88,467.8Zm-6.22.57c.82.4,4.57.45,4.45-.62A5.05,5.05,0,0,0,280.66,468.37ZM243,463.19c1.19.4,2.43.82,3.73,1.21l4.08,1a80.24,80.24,0,0,0,8.81,1.78,92.39,92.39,0,0,0,9.28,1c3.11.12,6.18.22,9.13.08.7-.07,1.05-.29.92-.72a71.08,71.08,0,0,1-7.74-.54c-1.45-.15-3-.28-4.52-.47l-4.74-.73-4.87-.67-4.85-.81c-1.6-.25-3.19-.46-4.74-.63S244.41,463.31,243,463.19Zm-56.74-49c9.1,6.29,19,11.59,26.95,14.31-1.68-.79-4-1.78-6.48-3.16s-5.31-2.68-7.92-4.27C193.41,418.13,188.58,415,186.22,414.15Zm-8.79-6c1.77,1.36,1.82,1.9,3.56,3.11.55-.25,1.95.64,2.57.49-1-.61-2.61-1.92-3.91-2.86S177.41,407.31,177.43,408.18Zm-30.11-29.75c6.21,7.89,13.52,15.78,18.59,19.65,3,2.54,5.84,5.26,9,7.61-.35-.86-2-2.05-3.72-3.56s-3.73-3.06-5-4.32c-2.33-2.58-6.22-6.39-9.72-10.28-.89-.95-1.79-1.88-2.67-2.76s-1.64-1.82-2.42-2.62A35.74,35.74,0,0,0,147.32,378.43ZM127,348.23c1.08,2.16,2.43,4.16,3.58,6.06.59.94,1.17,1.83,1.73,2.65s1.19,1.51,1.75,2.14c-1.12-1.87-2.29-4.45-3.54-6.58S128,348.63,127,348.23ZM114.78,319c.64,3.75,5.9,18.2,7.3,17.28-1.38-1.88-2.45-4.9-3.61-8.06S116.26,321.69,114.78,319Zm8.08-135.57-1.64-.83-1.49,3.25a219.53,219.53,0,0,0-11.89,38,171.94,171.94,0,0,0-3.79,40.79c.16,2.89.17,5.77.34,8.61s.43,5.65.64,8.43.71,5.49,1.06,8.17,1,5.28,1.45,7.84a48.16,48.16,0,0,0,1.19,5c.47,1.72,1,3.48,1.48,5.2a54.66,54.66,0,0,0,3.84,8.89,182.79,182.79,0,0,1-7.36-33.93,185.21,185.21,0,0,1-.67-37.16A178.34,178.34,0,0,1,112.39,211,185.21,185.21,0,0,1,122.86,183.45Zm-16.6,32c-.46-.15.28-2.13,0-2.53-.35,1.07-.78,2.24-1.08,3.45s-.57,2.46-.85,3.62c-.51,2.35-1,4.41-1.09,5.55s0,1.32.36-.16S104.87,220.78,106.26,215.4Zm6.06,30c-.81,3.47-1.07,7.91.45,8C113.21,249.4,113.08,246.62,112.32,245.37Zm55.36-119.08c-.81.64-1.64,1.26-2.43,1.93l-2.32,2.11c-1.52,1.43-3.11,2.81-4.55,4.33a119.59,119.59,0,0,0-8.1,9.29,167,167,0,0,0-11.91,17.35c-7.74,12.9-14.63,27.19-19,41.5s-6.58,28.45-6.37,40.35a185.42,185.42,0,0,1,17.79-63.22,207.59,207.59,0,0,1,36.52-52.32C167.91,127,168.11,126.49,167.68,126.29Zm-43.25,48.55c1.5,1.29-2.89,5.39-1.13,6.18,1.46-2.15,2.44-1.68,4-4.54,2.46-6.18,2.57-9.06,7-13.71-.55-.44.07-2,1.12-3.66s2.44-3.6,3.13-5c.54.68,1.43-.13,3-2.18A43.89,43.89,0,0,1,146,145c1.9-2.29,3.9-4.68,5.81-6.84a48.49,48.49,0,0,0,4.84-5.86c1.19-1.71,1.84-3.14,1.46-4.25-8.4,7.47-14.35,15.92-19.43,23.95S129.62,167.9,124.43,174.84ZM130.9,156c-2.79,4.18-7.32,9.77-6.29,12,1.24-2.37,3.06-5,4.41-7.17S131.24,156.67,130.9,156Zm32.53-43.49c-4.05,1.71-7.37,5.9-10.72,9.42a210.42,210.42,0,0,0-29.19,36.61,214.45,214.45,0,0,0-19.87,39.63C95.27,219.76,92.26,242.31,93,264.88A220.09,220.09,0,0,0,97,300a208.62,208.62,0,0,0,9.33,33.12A188.78,188.78,0,0,0,121.22,364a173.61,173.61,0,0,0,20.86,27.73,255.68,255.68,0,0,0,25.69,24.43,181.9,181.9,0,0,0,28.82,19.5l5.81,3c1.95.95,4,1.73,5.93,2.59,3.91,1.78,8,3.05,12,4.53,8.16,2.53,16.34,4.91,24.91,6.68.18,0,.32,0,.52-.06H249l3.31-.11-3.28-.67-3.24-.81c-2.16-.53-4.34-1-6.49-1.47-4.27-1.16-8.62-1.92-12.87-2.93a12.94,12.94,0,0,1-4-1.52,18.17,18.17,0,0,1-2.1-.62c-2.09-.72-3.63-1.93-6-2.84-1.07-.41-1.22.22-1.86,0-1.11-.36-1.51-1.15-2.09-1.39a140,140,0,0,1-34.78-19.44c-8.69-6.68-16.81-12.93-21.59-19.36a90.46,90.46,0,0,1-8.26-7.39c-2.64-2.66-5.13-5.53-7.63-8.44l-3.57-4.55-1.79-2.29-1.68-2.39-3.4-4.77-3.22-4.92A158,158,0,0,1,110.71,340c-6.42-15.08-10.48-31.42-13.26-47.73-2-12.44-3.84-25-3.4-38.18a188.46,188.46,0,0,1,3.58-29.81,201.22,201.22,0,0,1,8.58-29,207.28,207.28,0,0,1,29.34-51.61,227.61,227.61,0,0,1,20.92-23.81C158.74,117.6,162.51,115.06,163.43,112.46ZM178,83.73,173.05,87l-2.61,1.67-2.59,1.83-5.22,3.7c-1.7,1.28-3.34,2.63-4.95,3.91a84.21,84.21,0,0,0-8.47,7.73,30.54,30.54,0,0,0-5.22,6.76,23.78,23.78,0,0,0,3.65-3l3.28-3.2c2.15-2.06,4.13-4.06,6.66-4.69a20.91,20.91,0,0,1,4.5-4.6c2-1.68,4.51-3.18,6.81-4.81s4.58-3.09,6.27-4.49S178,85,178,83.73Z"/><path class="cls-2" d="M533,364.05c-1,.19-1.9.35-4.06,5.63-14,30.21-33.23,56.46-56.53,80a270.9,270.9,0,0,1-28,24.41c-4.8,3.44-9.42,6.91-14.23,9.89-2.38,1.52-4.69,3.1-7.09,4.5L416,492.57c-2.33,1.4-4.74,2.62-7.12,3.84L401.78,500l-7.14,3.24c-2.37,1.07-4.71,2.14-7.11,3-4.77,1.87-9.46,3.79-14.25,5.3L366.17,514,359,516a255,255,0,0,1-58.47,9,266.86,266.86,0,0,1-63.41-5.43,296.07,296.07,0,0,1-48.77-14.9A357.89,357.89,0,0,1,143,482.5a142.65,142.65,0,0,0-11.49-8.68c-5.2-4-11-8.15-14.18-10.81.14-.14-.76-1.21-1.28-1.11,2.55,2.21.93,2.18,4.66,5a230.88,230.88,0,0,0,37,26.12,253.24,253.24,0,0,0,44.85,20c31.71,10.76,65.93,15.06,96.72,14.38,5.64-.06,10.75-.21,15.75-.39a74.53,74.53,0,0,0,14.85-2.56,250.44,250.44,0,0,0,59.89-16.28,255.77,255.77,0,0,0,58.75-34.06,276.32,276.32,0,0,0,62.56-68,264.3,264.3,0,0,0,35.9-84.4c3.4-14.62,6.61-30.75,5.35-40.77-.34,3.6-.56,7.3-1.11,11s-1.11,7.49-1.68,11.28l-2.25,11.27c-.78,3.75-1.8,7.42-2.67,11.07C540.84,340.14,536.34,353.51,533,364.05Z"/><path class="cls-3" d="M195.93,353.81a5.82,5.82,0,0,1-4.9,2.45,8.93,8.93,0,0,1-5.52-1.84L97.18,271.61a7.42,7.42,0,0,1,0-11l88.33-82.81a9,9,0,0,1,5.52-1.84,5.81,5.81,0,0,1,4.9,2.46l26.38,28.21a6.66,6.66,0,0,1,2.15,5.52,7.8,7.8,0,0,1-2.15,4.91l-55.82,49.07,55.82,49.07a7.8,7.8,0,0,1,2.15,4.91,6.64,6.64,0,0,1-2.15,5.52Zm69.93,68.7a5.85,5.85,0,0,0,5.52-.31,9.28,9.28,0,0,0,3.68-4.6l83.42-288.3a5.79,5.79,0,0,0-.31-5.52,9.29,9.29,0,0,0-4.6-3.68l-37.41-11a7.33,7.33,0,0,0-5.52.92,9.28,9.28,0,0,0-3.68,4.6l-83.42,288.3a5.82,5.82,0,0,0,.3,5.52,9.34,9.34,0,0,0,4.6,3.68Zm130.65-68.09a8.93,8.93,0,0,1-5.52,1.84,5.86,5.86,0,0,1-4.91-2.45l-26.37-28.22a6.61,6.61,0,0,1-2.15-5.52,7.8,7.8,0,0,1,2.15-4.91l55.82-49.07L359.71,217a7.8,7.8,0,0,1-2.15-4.91,6.63,6.63,0,0,1,2.15-5.52l26.37-28.21a7.34,7.34,0,0,1,5.22-2.46,8.56,8.56,0,0,1,5.21,1.84l88.33,82.81a7.44,7.44,0,0,1,0,11Z"/><path class="cls-2" d="M75.29,658.23q0,20.82-10.09,32.52t-27.87,11.7a36.08,36.08,0,0,1-19.72-5.4,34.56,34.56,0,0,1-13.07-15.5A56.29,56.29,0,0,1,0,658.23q0-20.82,10.1-32.44t27.7-11.63q17.54,0,27.52,11.78T75.29,658.23Zm-67.15,0q0,17.53,7.71,27.35t21.8,9.83q14.09,0,21.79-9.83t7.71-27.35q0-17.61-7.78-27.32t-21.88-9.7q-14.08,0-21.72,9.66T8.14,658.23Z"/><path class="cls-2" d="M201.34,700.88v-55.8q0-12.45-4.85-18.16t-14.87-5.71q-13.08,0-19.33,7.2T156,651v49.85h-7.9V642.73q0-21.53-19.72-21.52-13.4,0-19.49,7.79t-6.11,24.92v47H95.05V615.81h6.42l1.65,11.66h.46a24.37,24.37,0,0,1,10-9.82,29.87,29.87,0,0,1,14.33-3.49q20.12,0,25.82,15.11h.32a28.9,28.9,0,0,1,11.15-11.19,32.09,32.09,0,0,1,15.93-3.92q13.93,0,20.9,7.44t7,23.64v55.64Z"/><path class="cls-2" d="M291.82,700.88V645.71q0-12.84-5.4-18.67t-16.75-5.83q-15.27,0-22.35,7.71t-7.08,25v47h-7.75V615.81h6.57l1.49,11.66H241q8.29-13.31,29.51-13.31,29,0,29,31.08v55.64Z"/><path class="cls-2" d="M321.58,592.17q0-7.51,4.93-7.51a4.4,4.4,0,0,1,3.8,2,9.66,9.66,0,0,1,1.37,5.56,9.88,9.88,0,0,1-1.37,5.56,4.33,4.33,0,0,1-3.8,2Q321.59,599.76,321.58,592.17Zm8.85,108.71h-7.75V615.81h7.75Z"/><path class="cls-2" d="M405.86,700.88l-2-13.46h-.62q-6.42,8.22-13.19,11.63a35.38,35.38,0,0,1-16,3.4q-12.52,0-19.49-6.42t-7-17.76A22,22,0,0,1,358,658.93q10.37-6.88,30-7.28l16.2-.47v-5.63q0-12.13-4.93-18.31t-15.89-6.19q-11.82,0-24.5,6.58l-2.9-6.74a64.89,64.89,0,0,1,27.71-6.57q14,0,20.94,7.28t6.92,22.7v56.58Zm-31.31-5.47q13.62,0,21.49-7.79T403.9,666V657.6l-14.87.63q-17.92.85-25.55,5.59t-7.63,14.76q0,8,4.89,12.4T374.55,695.41Z"/><path class="cls-2" d="M512.38,622.54h-20v78.34H484.6V622.54H468.79V618l15.81-2.9v-6.57q0-15.66,5.75-23t18.82-7.32a48.73,48.73,0,0,1,14.09,2.11l-1.8,6.73a41.68,41.68,0,0,0-12.44-2q-9.09,0-12.88,5.36t-3.8,17.41v7.91h20Z"/><path class="cls-2" d="M552.68,657.13,523,615.81h8.92l25.36,35.84,25.12-35.84H591l-29.19,41.32,31.31,43.75h-9l-26.77-38-26.93,38h-8.53Z"/></g></g></svg>