<svg xmlns="http://www.w3.org/2000/svg" xmlns:xlink="http://www.w3.org/1999/xlink" viewBox="0 0 802.93 172.24"><defs><style>.cls-1{fill:none;}.cls-2{clip-path:url(#clip-path);}.cls-3{fill:#060b13;}</style><clipPath id="clip-path"><rect class="cls-1" width="802.93" height="172.24"/></clipPath></defs><title>omnia_logo_Asset 1</title><g id="Layer_2" data-name="Layer 2"><g id="Layer_1-2" data-name="Layer 1"><g id="Omnia_Single" data-name="Omnia Single"><g class="cls-2"><g class="cls-2"><path class="cls-3" d="M619.73,30.35c0,16.75-12.2,30.34-27.23,30.34S565.26,47.1,565.26,30.35,577.45,0,592.5,0s27.23,13.59,27.23,30.35"/><path class="cls-3" d="M643.25,169.43c-.09-37.19-1.91-79.79-9.2-95.62-2.49-6.64-7.88-9.11-13.67-9.82l-.81-.14c-5.8,7.41-15.78,13.59-27.17,13.62S571,71.26,565.23,63.85c0,0-.65.13-.81.14-5.78.71-11.18,3.18-13.66,9.82-7.3,15.83-9.12,58.43-9.2,95.62Z"/><path class="cls-3" d="M746,30.83a116.46,116.46,0,0,1,23.24,2.75A40.77,40.77,0,0,1,789.28,45a40,40,0,0,1,10.63,17.33,70.54,70.54,0,0,1,3,20.49v86.37h-98.2q-21.27,0-32.55-11.67t-10.24-32.44q1.83-24.94,17.59-32.29t37.55-7.35l48-.27q.79-17.05-8.79-21.25T732,59.7l-60.91-.27V30.83ZM719.7,141.35h45.69V112.73H722.33c-.36.18-9.86-.84-15.76,2.71-3.87,2.33-6.39,5.55-6.57,11.68-.34,6.82,1.82,10.15,5.65,12.07,3.1,1.56,7.18,2.16,14.05,2.16"/><path class="cls-3" d="M147.91,102.3q0,16.92-5.59,30a61.54,61.54,0,0,1-15.47,21.93,66.4,66.4,0,0,1-23.51,13.47,93.29,93.29,0,0,1-29.95,4.59q-34.7,0-54-19.06T0,99.15A76.5,76.5,0,0,1,5.45,69.62,61.16,61.16,0,0,1,20.78,47.41,69,69,0,0,1,44.14,33.5a86.18,86.18,0,0,1,29.53-4.87q35,0,54.61,19.35t19.63,54.32m-39.27-2a76.31,76.31,0,0,0-1.72-16.62,37.33,37.33,0,0,0-5.73-13.48,27.76,27.76,0,0,0-10.75-9Q83.71,57.88,74,57.86q-10.32,0-17.06,3.45a27.33,27.33,0,0,0-10.61,9.31,38.71,38.71,0,0,0-5.44,13.91,87.67,87.67,0,0,0-1.58,16.9,69.21,69.21,0,0,0,1.86,16.49,36.47,36.47,0,0,0,6,13.19,28.16,28.16,0,0,0,10.9,8.74Q64.79,143,74.53,143t16.34-3.45a29.13,29.13,0,0,0,10.61-9.17,35.82,35.82,0,0,0,5.59-13.62,83.93,83.93,0,0,0,1.57-16.48"/><path class="cls-3" d="M479,169.19V79.69q0-10.51-4.55-14.91T459.4,60.37h-33V169.19H388.38V30.82h75.85q27.56,0,40.2,12.93t12.65,40.49v85Z"/><path class="cls-3" d="M309.9,30.86q26.78.53,42,11T367.4,81.79v87.44H330.64V81.79c0-6.93-1.81-14.26-6.73-17.22-3.17-1.92-6.24-2.52-9.92-2.91-4.78-.49-11.58-.35-16.43-.35h-11V169.23H249.25V61.31H206.46V169.23H169.7V30.86Z"/></g></g></g></g></g></svg>